<?xml version="1.0" encoding="utf-8"?>
<!-- Generator: Adobe Illustrator 24.0.3, SVG Export Plug-In . SVG Version: 6.00 Build 0)  -->
<svg version="1.1" id="Layer_1" xmlns="http://www.w3.org/2000/svg" xmlns:xlink="http://www.w3.org/1999/xlink" x="0px" y="0px"
	 viewBox="0 0 1920 1080" style="enable-background:new 0 0 1920 1080;" xml:space="preserve">
<style type="text/css">
	.st0{fill:#FFFFFF;}
</style>
<g>
	<rect x="783.57" y="323.24" class="st0" width="80.84" height="427.52"/>
	<path class="st0" d="M580.69,450.92c-84.69,0-153.34,68.65-153.34,153.34S496,757.59,580.69,757.59
		c84.69,0,153.34-68.65,153.34-153.34S665.37,450.92,580.69,450.92z M580.69,679.54c-41.58,0-75.29-33.71-75.29-75.29
		s33.71-75.29,75.29-75.29c41.58,0,75.29,33.71,75.29,75.29S622.27,679.54,580.69,679.54z"/>
	<path class="st0" d="M1180.78,568.92c-25.05-10.26-47.25-19.95-47.25-38.76c0-14.25,13.66-22.8,29.03-22.8
		c22.77,0,43.84,11.4,59.21,25.08l33.47-60.35c-33.83-20.3-52.82-28.01-92.67-28.01c-54.65,0-107.02,30.78-107.02,91.77
		c0,52.44,39.28,72.96,75.14,88.35c29.6,13.11,56.93,22.23,56.93,43.32c0,18.24-21.63,26.22-38.14,26.22
		c-29.03,0-47.82-13.11-70.59-35.34l-32.22,57.25c33.83,27.06,60.11,41.93,106.79,41.93c58.07,0,114.99-30.21,114.99-96.33
		C1268.44,604.26,1219.49,584.88,1180.78,568.92z"/>
	<rect x="924" y="450.92" class="st0" width="80.84" height="299.83"/>
	<path class="st0" d="M1467.31,680.07c-10.25,5.13-19.93,8.55-32.45,8.55c-17.08,0-23.91-10.83-26.19-28.5
		c-1.14-8.55-1.14-16.53-1.14-25.65V518.18h76.28v-67.26h-76.28V384.8h-68.31l-12.52,66.12h-35.86v67.26h35.86v124.84
		c0,17.67,1.14,35.34,5.69,50.16c10.82,38.76,42.13,64.41,88.81,64.41c23.34,0,51.8-6.27,71.16-17.67L1467.31,680.07z"/>
	<rect x="924" y="323.19" class="st0" width="80.84" height="68.97"/>
</g>
</svg>
